<mxfile host="Electron" modified="2025-07-01T13:54:07.921Z" agent="Mozilla/5.0 (Windows NT 10.0; Win64; x64) AppleWebKit/537.36 (KHTML, like Gecko) draw.io/21.6.5 Chrome/114.0.5735.243 Electron/25.3.1 Safari/537.36" etag="chgqhqbE4eLUu5CKqgl1" version="21.6.5" type="device" pages="6">
  <diagram name="Basic" id="Epm-QOs2IhFHxETOFgMH">
    <mxGraphModel dx="1095" dy="671" grid="0" gridSize="10" guides="1" tooltips="1" connect="1" arrows="1" fold="1" page="0" pageScale="1" pageWidth="827" pageHeight="1169" math="0" shadow="0">
      <root>
        <mxCell id="0" />
        <mxCell id="1" parent="0" />
        <mxCell id="Ra3vneHR3X0BikaKtNpq-1" value="Requirements" style="ellipse;whiteSpace=wrap;html=1;aspect=fixed;fillColor=#fff2cc;strokeColor=#d6b656;gradientColor=#ffd966;fontSize=13;" parent="1" vertex="1">
          <mxGeometry x="233.5" y="80" width="93" height="93" as="geometry" />
        </mxCell>
        <mxCell id="Ra3vneHR3X0BikaKtNpq-9" value="" style="edgeStyle=orthogonalEdgeStyle;rounded=0;orthogonalLoop=1;jettySize=auto;html=1;startArrow=classic;startFill=1;endArrow=none;endFill=0;entryX=0.5;entryY=1;entryDx=0;entryDy=0;exitX=0.5;exitY=0;exitDx=0;exitDy=0;strokeColor=#000000;fontColor=#000000;" parent="1" source="fYarUE5mop8ocHRJiMa5-1" target="Ra3vneHR3X0BikaKtNpq-1" edge="1">
          <mxGeometry relative="1" as="geometry" />
        </mxCell>
        <mxCell id="Ra3vneHR3X0BikaKtNpq-12" value="" style="endArrow=classic;startArrow=none;html=1;rounded=0;entryX=1;entryY=0.5;entryDx=0;entryDy=0;exitX=0;exitY=0.5;exitDx=0;exitDy=0;strokeColor=#000000;fontColor=#000000;startFill=0;dashed=1;" parent="1" source="fYarUE5mop8ocHRJiMa5-3" target="fYarUE5mop8ocHRJiMa5-6" edge="1">
          <mxGeometry width="50" height="50" relative="1" as="geometry">
            <mxPoint x="377" y="378" as="sourcePoint" />
            <mxPoint x="327" y="378" as="targetPoint" />
          </mxGeometry>
        </mxCell>
        <mxCell id="Ra3vneHR3X0BikaKtNpq-22" value="" style="endArrow=classic;html=1;rounded=0;exitX=1;exitY=0.5;exitDx=0;exitDy=0;entryX=0.5;entryY=0;entryDx=0;entryDy=0;strokeColor=#000000;fontColor=#000000;" parent="1" source="fYarUE5mop8ocHRJiMa5-1" target="fYarUE5mop8ocHRJiMa5-3" edge="1">
          <mxGeometry width="50" height="50" relative="1" as="geometry">
            <mxPoint x="456" y="179" as="sourcePoint" />
            <mxPoint x="426" y="330" as="targetPoint" />
            <Array as="points">
              <mxPoint x="416" y="245" />
            </Array>
          </mxGeometry>
        </mxCell>
        <mxCell id="Ra3vneHR3X0BikaKtNpq-23" value="" style="endArrow=classic;html=1;rounded=0;entryX=1;entryY=0.5;entryDx=0;entryDy=0;exitX=0.5;exitY=1;exitDx=0;exitDy=0;strokeColor=#000000;fontColor=#000000;" parent="1" source="fYarUE5mop8ocHRJiMa5-3" target="fYarUE5mop8ocHRJiMa5-4" edge="1">
          <mxGeometry width="50" height="50" relative="1" as="geometry">
            <mxPoint x="430" y="441" as="sourcePoint" />
            <mxPoint x="330" y="530" as="targetPoint" />
            <Array as="points">
              <mxPoint x="416" y="501" />
            </Array>
          </mxGeometry>
        </mxCell>
        <mxCell id="Ra3vneHR3X0BikaKtNpq-24" value="" style="endArrow=classic;html=1;rounded=0;entryX=0.5;entryY=1;entryDx=0;entryDy=0;exitX=0;exitY=0.5;exitDx=0;exitDy=0;strokeColor=#000000;fontColor=#000000;" parent="1" source="fYarUE5mop8ocHRJiMa5-4" target="fYarUE5mop8ocHRJiMa5-2" edge="1">
          <mxGeometry width="50" height="50" relative="1" as="geometry">
            <mxPoint x="230" y="530" as="sourcePoint" />
            <mxPoint x="130" y="440" as="targetPoint" />
            <Array as="points">
              <mxPoint x="147" y="500" />
            </Array>
          </mxGeometry>
        </mxCell>
        <mxCell id="Ra3vneHR3X0BikaKtNpq-25" value="" style="endArrow=classic;html=1;rounded=0;exitX=0.5;exitY=0;exitDx=0;exitDy=0;strokeColor=#000000;entryX=0;entryY=0.5;entryDx=0;entryDy=0;fontColor=#000000;" parent="1" source="fYarUE5mop8ocHRJiMa5-2" target="fYarUE5mop8ocHRJiMa5-1" edge="1">
          <mxGeometry width="50" height="50" relative="1" as="geometry">
            <mxPoint x="130" y="340" as="sourcePoint" />
            <mxPoint x="350" y="589" as="targetPoint" />
            <Array as="points">
              <mxPoint x="147" y="245" />
            </Array>
          </mxGeometry>
        </mxCell>
        <mxCell id="Ra3vneHR3X0BikaKtNpq-27" value="" style="endArrow=none;startArrow=classic;html=1;rounded=0;entryX=0.5;entryY=1;entryDx=0;entryDy=0;exitX=0.5;exitY=0;exitDx=0;exitDy=0;strokeColor=#000000;fontColor=#000000;endFill=0;dashed=1;" parent="1" source="fYarUE5mop8ocHRJiMa5-6" target="fYarUE5mop8ocHRJiMa5-1" edge="1">
          <mxGeometry width="50" height="50" relative="1" as="geometry">
            <mxPoint x="280" y="332" as="sourcePoint" />
            <mxPoint x="280" y="292" as="targetPoint" />
          </mxGeometry>
        </mxCell>
        <mxCell id="Ra3vneHR3X0BikaKtNpq-30" value="" style="endArrow=none;startArrow=classic;html=1;rounded=0;exitX=0;exitY=0.5;exitDx=0;exitDy=0;entryX=1;entryY=0.5;entryDx=0;entryDy=0;strokeColor=#000000;fontColor=#000000;endFill=0;dashed=1;" parent="1" source="fYarUE5mop8ocHRJiMa5-6" target="fYarUE5mop8ocHRJiMa5-2" edge="1">
          <mxGeometry width="50" height="50" relative="1" as="geometry">
            <mxPoint x="233.5" y="378" as="sourcePoint" />
            <mxPoint x="183.5" y="378" as="targetPoint" />
          </mxGeometry>
        </mxCell>
        <mxCell id="fYarUE5mop8ocHRJiMa5-1" value="&lt;font&gt;&lt;span&gt;A.&lt;/span&gt;&lt;br&gt;&lt;span&gt;Business&lt;/span&gt;&lt;br&gt;&lt;span&gt;Context&lt;/span&gt;&lt;br&gt;&lt;span&gt;Analysis&lt;/span&gt;&lt;/font&gt;" style="ellipse;whiteSpace=wrap;html=1;aspect=fixed;fillColor=#fff2cc;strokeColor=#d6b656;gradientColor=#ffd966;fontColor=default;fontSize=13;" parent="1" vertex="1">
          <mxGeometry x="233.5" y="198" width="93" height="93" as="geometry" />
        </mxCell>
        <mxCell id="fYarUE5mop8ocHRJiMa5-2" value="&lt;span&gt;D.&lt;/span&gt;&lt;br&gt;&lt;span&gt;Architecture&lt;/span&gt;&lt;br&gt;&lt;span&gt;Control&lt;/span&gt;" style="ellipse;whiteSpace=wrap;html=1;aspect=fixed;fillColor=#fff2cc;strokeColor=#d6b656;gradientColor=#ffd966;fontSize=13;" parent="1" vertex="1">
          <mxGeometry x="100" y="324" width="93" height="93" as="geometry" />
        </mxCell>
        <mxCell id="fYarUE5mop8ocHRJiMa5-3" value="&lt;font style=&quot;color: rgb(0, 0, 0);&quot;&gt;&lt;span&gt;B.&lt;/span&gt;&lt;br&gt;&lt;span&gt;Solution&lt;/span&gt;&lt;br&gt;&lt;span&gt;Architecture&lt;/span&gt;&lt;/font&gt;" style="ellipse;whiteSpace=wrap;html=1;aspect=fixed;fillColor=#fff2cc;strokeColor=#d6b656;gradientColor=#ffd966;fontSize=13;" parent="1" vertex="1">
          <mxGeometry x="369" y="324" width="93" height="93" as="geometry" />
        </mxCell>
        <mxCell id="fYarUE5mop8ocHRJiMa5-8" value="" style="edgeStyle=none;html=1;entryX=0.5;entryY=1;entryDx=0;entryDy=0;exitX=0.5;exitY=0;exitDx=0;exitDy=0;startArrow=none;startFill=0;strokeColor=#000000;fontColor=#000000;dashed=1;" parent="1" source="fYarUE5mop8ocHRJiMa5-4" target="fYarUE5mop8ocHRJiMa5-6" edge="1">
          <mxGeometry relative="1" as="geometry" />
        </mxCell>
        <mxCell id="fYarUE5mop8ocHRJiMa5-4" value="&lt;span&gt;C.&lt;/span&gt;&lt;br&gt;&lt;span&gt;Architecture&lt;/span&gt;&lt;br&gt;&lt;span&gt;Decision&lt;/span&gt;" style="ellipse;whiteSpace=wrap;html=1;aspect=fixed;fillColor=#fff2cc;strokeColor=#d6b656;gradientColor=#ffd966;fontSize=13;" parent="1" vertex="1">
          <mxGeometry x="233.5" y="454" width="93" height="93" as="geometry" />
        </mxCell>
        <mxCell id="fYarUE5mop8ocHRJiMa5-6" value="&lt;span&gt;E.&lt;/span&gt;&lt;br&gt;&lt;span&gt;Architecture&lt;/span&gt;&lt;br&gt;&lt;span&gt;Repository&lt;/span&gt;" style="ellipse;whiteSpace=wrap;html=1;aspect=fixed;fillColor=#ffcd28;strokeColor=#d79b00;gradientColor=#ffa500;fontSize=13;" parent="1" vertex="1">
          <mxGeometry x="233.5" y="324" width="93" height="93" as="geometry" />
        </mxCell>
      </root>
    </mxGraphModel>
  </diagram>
  <diagram name="Repo + Registry" id="IIK3f2Rg_ksPUki8vJSf">
    <mxGraphModel dx="1511" dy="1196" grid="1" gridSize="10" guides="1" tooltips="1" connect="1" arrows="1" fold="1" page="0" pageScale="1" pageWidth="827" pageHeight="1169" math="0" shadow="0">
      <root>
        <mxCell id="XpvWPG15rSjGNJhNR0OT-0" />
        <mxCell id="XpvWPG15rSjGNJhNR0OT-1" parent="XpvWPG15rSjGNJhNR0OT-0" />
        <object placeholders="1" c4Name="Deployment" c4Type="ContainerScopeBoundary" c4Application="Layer" label="&lt;font style=&quot;font-size: 16px&quot;&gt;&lt;b&gt;&lt;div style=&quot;text-align: left&quot;&gt;%c4Name%&lt;/div&gt;&lt;/b&gt;&lt;/font&gt;&lt;div style=&quot;text-align: left&quot;&gt;[%c4Application%]&lt;/div&gt;" id="Nr0JQwKcKN6MSNy4xDsV-1">
          <mxCell style="rounded=1;fontSize=11;whiteSpace=wrap;html=1;dashed=1;arcSize=20;fillColor=#fff2cc;strokeColor=#d6b656;labelBackgroundColor=none;align=left;verticalAlign=bottom;labelBorderColor=none;spacingTop=0;spacing=10;dashPattern=8 4;metaEdit=1;rotatable=0;perimeter=rectanglePerimeter;noLabel=0;labelPadding=0;allowArrows=0;connectable=0;expand=0;recursiveResize=0;editable=1;pointerEvents=0;absoluteArcSize=1;points=[[0.25,0,0],[0.5,0,0],[0.75,0,0],[1,0.25,0],[1,0.5,0],[1,0.75,0],[0.75,1,0],[0.5,1,0],[0.25,1,0],[0,0.75,0],[0,0.5,0],[0,0.25,0]];" vertex="1" parent="XpvWPG15rSjGNJhNR0OT-1">
            <mxGeometry x="-60" y="370" width="540" height="300" as="geometry" />
          </mxCell>
        </object>
        <object placeholders="1" c4Name="Version Control" c4Type="ContainerScopeBoundary" c4Application="Layer" label="&lt;font style=&quot;font-size: 16px&quot;&gt;&lt;b&gt;&lt;div style=&quot;text-align: left&quot;&gt;%c4Name%&lt;/div&gt;&lt;/b&gt;&lt;/font&gt;&lt;div style=&quot;text-align: left&quot;&gt;[%c4Application%]&lt;/div&gt;" id="XpvWPG15rSjGNJhNR0OT-2">
          <mxCell style="rounded=1;fontSize=11;whiteSpace=wrap;html=1;dashed=1;arcSize=20;fillColor=#f5f5f5;strokeColor=#666666;labelBackgroundColor=none;align=left;verticalAlign=bottom;labelBorderColor=none;spacingTop=0;spacing=10;dashPattern=8 4;metaEdit=1;rotatable=0;perimeter=rectanglePerimeter;noLabel=0;labelPadding=0;allowArrows=0;connectable=0;expand=0;recursiveResize=0;editable=1;pointerEvents=0;absoluteArcSize=1;points=[[0.25,0,0],[0.5,0,0],[0.75,0,0],[1,0.25,0],[1,0.5,0],[1,0.75,0],[0.75,1,0],[0.5,1,0],[0.25,1,0],[0,0.75,0],[0,0.5,0],[0,0.25,0]];fontColor=#333333;" vertex="1" parent="XpvWPG15rSjGNJhNR0OT-1">
            <mxGeometry x="-60" y="200" width="540" height="150" as="geometry" />
          </mxCell>
        </object>
        <object placeholders="1" c4Name="Local Development" c4Type="ContainerScopeBoundary" c4Application="Layer" label="&lt;font style=&quot;font-size: 16px&quot;&gt;&lt;b&gt;&lt;div style=&quot;text-align: left&quot;&gt;%c4Name%&lt;/div&gt;&lt;/b&gt;&lt;/font&gt;&lt;div style=&quot;text-align: left&quot;&gt;[%c4Application%]&lt;/div&gt;" id="XpvWPG15rSjGNJhNR0OT-3">
          <mxCell style="rounded=1;fontSize=11;whiteSpace=wrap;html=1;dashed=1;arcSize=20;fillColor=#fff2cc;strokeColor=#d6b656;labelBackgroundColor=none;align=left;verticalAlign=bottom;labelBorderColor=none;spacingTop=0;spacing=10;dashPattern=8 4;metaEdit=1;rotatable=0;perimeter=rectanglePerimeter;noLabel=0;labelPadding=0;allowArrows=0;connectable=0;expand=0;recursiveResize=0;editable=1;pointerEvents=0;absoluteArcSize=1;points=[[0.25,0,0],[0.5,0,0],[0.75,0,0],[1,0.25,0],[1,0.5,0],[1,0.75,0],[0.75,1,0],[0.5,1,0],[0.25,1,0],[0,0.75,0],[0,0.5,0],[0,0.25,0]];" vertex="1" parent="XpvWPG15rSjGNJhNR0OT-1">
            <mxGeometry x="-60" y="-60" width="540" height="250" as="geometry" />
          </mxCell>
        </object>
        <object placeholders="1" c4Name="Version Control System" c4Type="System" c4Technology="Github, Gitlab, etc." c4Description="Artifact long-time storage" label="&lt;font style=&quot;font-size: 16px&quot;&gt;&lt;b&gt;%c4Name%&lt;/b&gt;&lt;/font&gt;&lt;div&gt;[%c4Type%: %c4Technology%]&lt;/div&gt;&lt;br&gt;&lt;div&gt;&lt;font style=&quot;font-size: 11px&quot;&gt;&lt;font color=&quot;#E6E6E6&quot;&gt;%c4Description%&lt;/font&gt;&lt;/div&gt;" id="XpvWPG15rSjGNJhNR0OT-4">
          <mxCell style="rounded=1;whiteSpace=wrap;html=1;fontSize=11;labelBackgroundColor=none;fillColor=#1ba1e2;fontColor=#ffffff;align=center;arcSize=10;strokeColor=#006EAF;metaEdit=1;resizable=0;points=[[0.25,0,0],[0.5,0,0],[0.75,0,0],[1,0.25,0],[1,0.5,0],[1,0.75,0],[0.75,1,0],[0.5,1,0],[0.25,1,0],[0,0.75,0],[0,0.5,0],[0,0.25,0]];" vertex="1" parent="XpvWPG15rSjGNJhNR0OT-1">
            <mxGeometry x="229" y="220" width="240" height="120" as="geometry" />
          </mxCell>
        </object>
        <object placeholders="1" c4Name="Architecture Portal" c4Type="Framework" c4Technology="Astro" c4Description="Markdown &amp; MDX" label="&lt;font style=&quot;font-size: 16px&quot;&gt;&lt;b&gt;%c4Name%&lt;/b&gt;&lt;/font&gt;&lt;div&gt;[%c4Type%: %c4Technology%]&lt;/div&gt;&lt;br&gt;&lt;div&gt;&lt;font style=&quot;font-size: 11px&quot;&gt;&lt;font color=&quot;#E6E6E6&quot;&gt;%c4Description%&lt;/font&gt;&lt;/div&gt;" id="XpvWPG15rSjGNJhNR0OT-5">
          <mxCell style="rounded=1;whiteSpace=wrap;html=1;fontSize=11;labelBackgroundColor=none;fillColor=#0050ef;fontColor=#ffffff;align=center;arcSize=10;strokeColor=#001DBC;metaEdit=1;resizable=0;points=[[0.25,0,0],[0.5,0,0],[0.75,0,0],[1,0.25,0],[1,0.5,0],[1,0.75,0],[0.75,1,0],[0.5,1,0],[0.25,1,0],[0,0.75,0],[0,0.5,0],[0,0.25,0]];" vertex="1" parent="XpvWPG15rSjGNJhNR0OT-1">
            <mxGeometry x="-50" y="395" width="240" height="120" as="geometry" />
          </mxCell>
        </object>
        <object placeholders="1" c4Name="Enterprise Architect" c4Type="Person" c4Description="Enterprise Architect" label="&lt;font style=&quot;font-size: 16px&quot;&gt;&lt;b&gt;%c4Name%&lt;/b&gt;&lt;/font&gt;&lt;div&gt;[%c4Type%]&lt;/div&gt;&lt;br&gt;&lt;div&gt;&lt;font style=&quot;font-size: 11px&quot;&gt;&lt;font color=&quot;#cccccc&quot;&gt;%c4Description%&lt;/font&gt;&lt;/div&gt;" id="XpvWPG15rSjGNJhNR0OT-6">
          <mxCell style="html=1;fontSize=11;dashed=0;whiteSpace=wrap;fillColor=#083F75;strokeColor=#06315C;fontColor=#ffffff;shape=mxgraph.c4.person2;align=center;metaEdit=1;points=[[0.5,0,0],[1,0.5,0],[1,0.75,0],[0.75,1,0],[0.5,1,0],[0.25,1,0],[0,0.75,0],[0,0.5,0]];resizable=0;" vertex="1" parent="XpvWPG15rSjGNJhNR0OT-1">
            <mxGeometry x="-50" y="-50" width="200" height="180" as="geometry" />
          </mxCell>
        </object>
        <object placeholders="1" c4Name="Artifact Development" c4Type="Systems" c4Technology="VSCode, Draw.io, etc." c4Description="Markdown, Draw.io, PlantUML, etc." label="&lt;font style=&quot;font-size: 16px&quot;&gt;&lt;b&gt;%c4Name%&lt;/b&gt;&lt;/font&gt;&lt;div&gt;[%c4Type%: %c4Technology%]&lt;/div&gt;&lt;br&gt;&lt;div&gt;&lt;font style=&quot;font-size: 11px&quot;&gt;&lt;font color=&quot;#E6E6E6&quot;&gt;%c4Description%&lt;/font&gt;&lt;/div&gt;" id="XpvWPG15rSjGNJhNR0OT-7">
          <mxCell style="rounded=1;whiteSpace=wrap;html=1;fontSize=11;labelBackgroundColor=none;fillColor=#1ba1e2;fontColor=#ffffff;align=center;arcSize=10;strokeColor=#006EAF;metaEdit=1;resizable=0;points=[[0.25,0,0],[0.5,0,0],[0.75,0,0],[1,0.25,0],[1,0.5,0],[1,0.75,0],[0.75,1,0],[0.5,1,0],[0.25,1,0],[0,0.75,0],[0,0.5,0],[0,0.25,0]];" vertex="1" parent="XpvWPG15rSjGNJhNR0OT-1">
            <mxGeometry x="229" y="-20" width="240" height="120" as="geometry" />
          </mxCell>
        </object>
        <object placeholders="1" c4Type="Relationship" c4Description="artifacts" label="&lt;div style=&quot;text-align: left&quot;&gt;&lt;div style=&quot;text-align: center&quot;&gt;&lt;b&gt;%c4Description%&lt;/b&gt;&lt;/div&gt;" id="Nr0JQwKcKN6MSNy4xDsV-0">
          <mxCell style="endArrow=blockThin;html=1;fontSize=10;fontColor=#404040;strokeWidth=1;endFill=1;strokeColor=#828282;elbow=vertical;metaEdit=1;endSize=14;startSize=14;jumpStyle=arc;jumpSize=16;rounded=0;edgeStyle=orthogonalEdgeStyle;exitX=1;exitY=0.5;exitDx=0;exitDy=0;exitPerimeter=0;entryX=0;entryY=0.5;entryDx=0;entryDy=0;entryPerimeter=0;" edge="1" parent="XpvWPG15rSjGNJhNR0OT-1" source="XpvWPG15rSjGNJhNR0OT-6" target="XpvWPG15rSjGNJhNR0OT-7">
            <mxGeometry x="-0.2405" y="10" width="240" relative="1" as="geometry">
              <mxPoint x="445" y="245" as="sourcePoint" />
              <mxPoint x="685" y="245" as="targetPoint" />
              <mxPoint as="offset" />
            </mxGeometry>
          </mxCell>
        </object>
        <object placeholders="1" c4Type="Relationship" c4Description="deployment" label="&lt;div style=&quot;text-align: left&quot;&gt;&lt;div style=&quot;text-align: center&quot;&gt;&lt;b&gt;%c4Description%&lt;/b&gt;&lt;/div&gt;" id="Nr0JQwKcKN6MSNy4xDsV-2">
          <mxCell style="endArrow=blockThin;html=1;fontSize=10;fontColor=#404040;strokeWidth=1;endFill=1;strokeColor=#828282;elbow=vertical;metaEdit=1;endSize=14;startSize=14;jumpStyle=arc;jumpSize=16;rounded=0;edgeStyle=orthogonalEdgeStyle;exitX=0.25;exitY=1;exitDx=0;exitDy=0;exitPerimeter=0;entryX=0.5;entryY=0;entryDx=0;entryDy=0;entryPerimeter=0;" edge="1" parent="XpvWPG15rSjGNJhNR0OT-1" source="XpvWPG15rSjGNJhNR0OT-4" target="XpvWPG15rSjGNJhNR0OT-5">
            <mxGeometry x="0.0127" width="240" relative="1" as="geometry">
              <mxPoint x="150" y="40" as="sourcePoint" />
              <mxPoint x="239" y="40" as="targetPoint" />
              <mxPoint as="offset" />
              <Array as="points">
                <mxPoint x="289" y="360" />
                <mxPoint x="70" y="360" />
              </Array>
            </mxGeometry>
          </mxCell>
        </object>
        <object placeholders="1" c4Type="Relationship" c4Description="commit" label="&lt;div style=&quot;text-align: left&quot;&gt;&lt;div style=&quot;text-align: center&quot;&gt;&lt;b&gt;%c4Description%&lt;/b&gt;&lt;/div&gt;" id="Nr0JQwKcKN6MSNy4xDsV-3">
          <mxCell style="endArrow=blockThin;html=1;fontSize=10;fontColor=#404040;strokeWidth=1;endFill=1;strokeColor=#828282;elbow=vertical;metaEdit=1;endSize=14;startSize=14;jumpStyle=arc;jumpSize=16;rounded=0;edgeStyle=orthogonalEdgeStyle;exitX=0.5;exitY=1;exitDx=0;exitDy=0;exitPerimeter=0;entryX=0.5;entryY=0;entryDx=0;entryDy=0;entryPerimeter=0;" edge="1" parent="XpvWPG15rSjGNJhNR0OT-1" source="XpvWPG15rSjGNJhNR0OT-7" target="XpvWPG15rSjGNJhNR0OT-4">
            <mxGeometry x="0.0127" width="240" relative="1" as="geometry">
              <mxPoint x="359" y="350" as="sourcePoint" />
              <mxPoint x="70" y="405" as="targetPoint" />
              <mxPoint as="offset" />
              <Array as="points">
                <mxPoint x="349" y="120" />
                <mxPoint x="349" y="120" />
              </Array>
            </mxGeometry>
          </mxCell>
        </object>
        <object placeholders="1" c4Name="Architecture Registry" c4Type="Framework" c4Technology="React + Next.js" c4Description="Artifact relations &amp; attributes" label="&lt;font style=&quot;font-size: 16px&quot;&gt;&lt;b&gt;%c4Name%&lt;/b&gt;&lt;/font&gt;&lt;div&gt;[%c4Type%: %c4Technology%]&lt;/div&gt;&lt;br&gt;&lt;div&gt;&lt;font style=&quot;font-size: 11px&quot;&gt;&lt;font color=&quot;#E6E6E6&quot;&gt;%c4Description%&lt;/font&gt;&lt;/div&gt;" id="Nr0JQwKcKN6MSNy4xDsV-4">
          <mxCell style="rounded=1;whiteSpace=wrap;html=1;fontSize=11;labelBackgroundColor=none;fillColor=#0050ef;fontColor=#ffffff;align=center;arcSize=10;strokeColor=#001DBC;metaEdit=1;resizable=0;points=[[0.25,0,0],[0.5,0,0],[0.75,0,0],[1,0.25,0],[1,0.5,0],[1,0.75,0],[0.75,1,0],[0.5,1,0],[0.25,1,0],[0,0.75,0],[0,0.5,0],[0,0.25,0]];" vertex="1" parent="XpvWPG15rSjGNJhNR0OT-1">
            <mxGeometry x="229" y="395" width="240" height="120" as="geometry" />
          </mxCell>
        </object>
        <object placeholders="1" c4Type="Registry Database" c4Container="DB" c4Technology="Supabase" c4Description="" label="&lt;font style=&quot;font-size: 16px&quot;&gt;&lt;b&gt;%c4Type%&lt;/b&gt;&lt;/font&gt;&lt;div&gt;[%c4Container%:&amp;nbsp;%c4Technology%]&lt;/div&gt;&lt;br&gt;&lt;div&gt;&lt;font style=&quot;font-size: 11px&quot;&gt;&lt;font color=&quot;#E6E6E6&quot;&gt;%c4Description%&lt;/font&gt;&lt;/div&gt;" id="Nr0JQwKcKN6MSNy4xDsV-5">
          <mxCell style="shape=cylinder3;size=15;whiteSpace=wrap;html=1;boundedLbl=1;rounded=0;labelBackgroundColor=none;fillColor=#6a00ff;fontSize=12;fontColor=#ffffff;align=center;strokeColor=#3700CC;metaEdit=1;points=[[0.5,0,0],[1,0.25,0],[1,0.5,0],[1,0.75,0],[0.5,1,0],[0,0.75,0],[0,0.5,0],[0,0.25,0]];resizable=0;" vertex="1" parent="XpvWPG15rSjGNJhNR0OT-1">
            <mxGeometry x="229" y="540" width="240" height="120" as="geometry" />
          </mxCell>
        </object>
        <object placeholders="1" c4Type="Relationship" id="Nr0JQwKcKN6MSNy4xDsV-6">
          <mxCell style="endArrow=blockThin;html=1;fontSize=10;fontColor=#404040;strokeWidth=1;endFill=1;strokeColor=#828282;elbow=vertical;metaEdit=1;endSize=14;startSize=14;jumpStyle=arc;jumpSize=16;rounded=0;edgeStyle=orthogonalEdgeStyle;exitX=0.5;exitY=1;exitDx=0;exitDy=0;exitPerimeter=0;" edge="1" parent="XpvWPG15rSjGNJhNR0OT-1" source="Nr0JQwKcKN6MSNy4xDsV-4" target="Nr0JQwKcKN6MSNy4xDsV-5">
            <mxGeometry width="240" relative="1" as="geometry">
              <mxPoint x="330" y="540" as="sourcePoint" />
              <mxPoint x="570" y="540" as="targetPoint" />
            </mxGeometry>
          </mxCell>
        </object>
      </root>
    </mxGraphModel>
  </diagram>
  <diagram name="Copy of Repo + Registry" id="5XJxZ3ZmKUbvPzjbrQUB">
    <mxGraphModel dx="1707" dy="936" grid="0" gridSize="10" guides="1" tooltips="1" connect="1" arrows="1" fold="1" page="0" pageScale="1" pageWidth="827" pageHeight="1169" math="0" shadow="0">
      <root>
        <mxCell id="PSPIoAO_-2s0_nvVkHKU-0" />
        <mxCell id="PSPIoAO_-2s0_nvVkHKU-1" parent="PSPIoAO_-2s0_nvVkHKU-0" />
        <object placeholders="1" c4Name="Deployment" c4Type="ContainerScopeBoundary" c4Application="Layer" label="&lt;font style=&quot;font-size: 16px&quot;&gt;&lt;b&gt;&lt;div style=&quot;text-align: left&quot;&gt;%c4Name%&lt;/div&gt;&lt;/b&gt;&lt;/font&gt;&lt;div style=&quot;text-align: left&quot;&gt;[%c4Application%]&lt;/div&gt;" id="PSPIoAO_-2s0_nvVkHKU-2">
          <mxCell style="rounded=1;fontSize=11;whiteSpace=wrap;html=1;dashed=1;arcSize=20;fillColor=#fff2cc;strokeColor=#d6b656;labelBackgroundColor=none;align=left;verticalAlign=bottom;labelBorderColor=none;spacingTop=0;spacing=10;dashPattern=8 4;metaEdit=1;rotatable=0;perimeter=rectanglePerimeter;noLabel=0;labelPadding=0;allowArrows=0;connectable=0;expand=0;recursiveResize=0;editable=1;pointerEvents=0;absoluteArcSize=1;points=[[0.25,0,0],[0.5,0,0],[0.75,0,0],[1,0.25,0],[1,0.5,0],[1,0.75,0],[0.75,1,0],[0.5,1,0],[0.25,1,0],[0,0.75,0],[0,0.5,0],[0,0.25,0]];" vertex="1" parent="PSPIoAO_-2s0_nvVkHKU-1">
            <mxGeometry x="100" y="370" width="380" height="420" as="geometry" />
          </mxCell>
        </object>
        <object placeholders="1" c4Name="Version &#xa;Control" c4Type="ContainerScopeBoundary" c4Application="Layer" label="&lt;font style=&quot;font-size: 16px&quot;&gt;&lt;b&gt;&lt;div style=&quot;text-align: left&quot;&gt;%c4Name%&lt;/div&gt;&lt;/b&gt;&lt;/font&gt;&lt;div style=&quot;text-align: left&quot;&gt;[%c4Application%]&lt;/div&gt;" id="PSPIoAO_-2s0_nvVkHKU-3">
          <mxCell style="rounded=1;fontSize=11;whiteSpace=wrap;html=1;dashed=1;arcSize=20;fillColor=#f5f5f5;strokeColor=#666666;labelBackgroundColor=none;align=left;verticalAlign=bottom;labelBorderColor=none;spacingTop=0;spacing=10;dashPattern=8 4;metaEdit=1;rotatable=0;perimeter=rectanglePerimeter;noLabel=0;labelPadding=0;allowArrows=0;connectable=0;expand=0;recursiveResize=0;editable=1;pointerEvents=0;absoluteArcSize=1;points=[[0.25,0,0],[0.5,0,0],[0.75,0,0],[1,0.25,0],[1,0.5,0],[1,0.75,0],[0.75,1,0],[0.5,1,0],[0.25,1,0],[0,0.75,0],[0,0.5,0],[0,0.25,0]];fontColor=#333333;" vertex="1" parent="PSPIoAO_-2s0_nvVkHKU-1">
            <mxGeometry x="100" y="200" width="380" height="150" as="geometry" />
          </mxCell>
        </object>
        <object placeholders="1" c4Name="Local &#xa;Development" c4Type="ContainerScopeBoundary" c4Application="Layer" label="&lt;font style=&quot;font-size: 16px&quot;&gt;&lt;b&gt;&lt;div style=&quot;text-align: left&quot;&gt;%c4Name%&lt;/div&gt;&lt;/b&gt;&lt;/font&gt;&lt;div style=&quot;text-align: left&quot;&gt;[%c4Application%]&lt;/div&gt;" id="PSPIoAO_-2s0_nvVkHKU-4">
          <mxCell style="rounded=1;fontSize=11;whiteSpace=wrap;html=1;dashed=1;arcSize=20;fillColor=#dae8fc;strokeColor=#6c8ebf;labelBackgroundColor=none;align=left;verticalAlign=bottom;labelBorderColor=none;spacingTop=0;spacing=10;dashPattern=8 4;metaEdit=1;rotatable=0;perimeter=rectanglePerimeter;noLabel=0;labelPadding=0;allowArrows=0;connectable=0;expand=0;recursiveResize=0;editable=1;pointerEvents=0;absoluteArcSize=1;points=[[0.25,0,0],[0.5,0,0],[0.75,0,0],[1,0.25,0],[1,0.5,0],[1,0.75,0],[0.75,1,0],[0.5,1,0],[0.25,1,0],[0,0.75,0],[0,0.5,0],[0,0.25,0]];" vertex="1" parent="PSPIoAO_-2s0_nvVkHKU-1">
            <mxGeometry x="100" y="20" width="380" height="160" as="geometry" />
          </mxCell>
        </object>
        <object placeholders="1" c4Name="Version Control System" c4Type="System" c4Technology="Github, Gitlab, etc." c4Description="Artifact long-time storage" label="&lt;font style=&quot;font-size: 16px&quot;&gt;&lt;b&gt;%c4Name%&lt;/b&gt;&lt;/font&gt;&lt;div&gt;[%c4Type%: %c4Technology%]&lt;/div&gt;&lt;br&gt;&lt;div&gt;&lt;font style=&quot;font-size: 11px&quot;&gt;&lt;font color=&quot;#E6E6E6&quot;&gt;%c4Description%&lt;/font&gt;&lt;/div&gt;" id="PSPIoAO_-2s0_nvVkHKU-5">
          <mxCell style="rounded=1;whiteSpace=wrap;html=1;fontSize=11;labelBackgroundColor=none;fillColor=#1ba1e2;fontColor=#ffffff;align=center;arcSize=10;strokeColor=#006EAF;metaEdit=1;resizable=0;points=[[0.25,0,0],[0.5,0,0],[0.75,0,0],[1,0.25,0],[1,0.5,0],[1,0.75,0],[0.75,1,0],[0.5,1,0],[0.25,1,0],[0,0.75,0],[0,0.5,0],[0,0.25,0]];" vertex="1" parent="PSPIoAO_-2s0_nvVkHKU-1">
            <mxGeometry x="229" y="215" width="240" height="120" as="geometry" />
          </mxCell>
        </object>
        <object placeholders="1" c4Name="Architecture Portal" c4Type="Framework" c4Technology="Astro" c4Description="Markdown &amp; MDX" label="&lt;font style=&quot;font-size: 16px&quot;&gt;&lt;b&gt;%c4Name%&lt;/b&gt;&lt;/font&gt;&lt;div&gt;[%c4Type%: %c4Technology%]&lt;/div&gt;&lt;br&gt;&lt;div&gt;&lt;font style=&quot;font-size: 11px&quot;&gt;&lt;font color=&quot;#E6E6E6&quot;&gt;%c4Description%&lt;/font&gt;&lt;/div&gt;" id="PSPIoAO_-2s0_nvVkHKU-6">
          <mxCell style="rounded=1;whiteSpace=wrap;html=1;fontSize=11;labelBackgroundColor=none;fillColor=#0050ef;fontColor=#ffffff;align=center;arcSize=10;strokeColor=#001DBC;metaEdit=1;resizable=0;points=[[0.25,0,0],[0.5,0,0],[0.75,0,0],[1,0.25,0],[1,0.5,0],[1,0.75,0],[0.75,1,0],[0.5,1,0],[0.25,1,0],[0,0.75,0],[0,0.5,0],[0,0.25,0]];" vertex="1" parent="PSPIoAO_-2s0_nvVkHKU-1">
            <mxGeometry x="229" y="380" width="240" height="120" as="geometry" />
          </mxCell>
        </object>
        <object placeholders="1" c4Name="Enterprise Architects" c4Type="Person" c4Description="" label="&lt;font style=&quot;font-size: 16px&quot;&gt;&lt;b&gt;%c4Name%&lt;/b&gt;&lt;/font&gt;&lt;div&gt;[%c4Type%]&lt;/div&gt;&lt;br&gt;&lt;div&gt;&lt;font style=&quot;font-size: 11px&quot;&gt;&lt;font color=&quot;#cccccc&quot;&gt;%c4Description%&lt;/font&gt;&lt;/div&gt;" id="PSPIoAO_-2s0_nvVkHKU-7">
          <mxCell style="html=1;fontSize=11;dashed=0;whiteSpace=wrap;fillColor=#083F75;strokeColor=#06315C;fontColor=#ffffff;shape=mxgraph.c4.person2;align=center;metaEdit=1;points=[[0.5,0,0],[1,0.5,0],[1,0.75,0],[0.75,1,0],[0.5,1,0],[0.25,1,0],[0,0.75,0],[0,0.5,0]];resizable=0;" vertex="1" parent="PSPIoAO_-2s0_nvVkHKU-1">
            <mxGeometry x="-140" y="10" width="200" height="180" as="geometry" />
          </mxCell>
        </object>
        <object placeholders="1" c4Name="Artifact Development" c4Type="Systems" c4Technology="VSCode, Draw.io, etc." c4Description="Markdown, Draw.io, PlantUML, etc." label="&lt;font style=&quot;font-size: 16px&quot;&gt;&lt;b&gt;%c4Name%&lt;/b&gt;&lt;/font&gt;&lt;div&gt;[%c4Type%: %c4Technology%]&lt;/div&gt;&lt;br&gt;&lt;div&gt;&lt;font style=&quot;font-size: 11px&quot;&gt;&lt;font color=&quot;#E6E6E6&quot;&gt;%c4Description%&lt;/font&gt;&lt;/div&gt;" id="PSPIoAO_-2s0_nvVkHKU-8">
          <mxCell style="rounded=1;whiteSpace=wrap;html=1;fontSize=11;labelBackgroundColor=none;fillColor=#1ba1e2;fontColor=#ffffff;align=center;arcSize=10;strokeColor=#006EAF;metaEdit=1;resizable=0;points=[[0.25,0,0],[0.5,0,0],[0.75,0,0],[1,0.25,0],[1,0.5,0],[1,0.75,0],[0.75,1,0],[0.5,1,0],[0.25,1,0],[0,0.75,0],[0,0.5,0],[0,0.25,0]];" vertex="1" parent="PSPIoAO_-2s0_nvVkHKU-1">
            <mxGeometry x="229" y="40" width="240" height="120" as="geometry" />
          </mxCell>
        </object>
        <object placeholders="1" c4Type="Relationship" c4Description="" label="&lt;div style=&quot;text-align: left&quot;&gt;&lt;div style=&quot;text-align: center&quot;&gt;&lt;b&gt;%c4Description%&lt;/b&gt;&lt;/div&gt;" id="PSPIoAO_-2s0_nvVkHKU-9">
          <mxCell style="endArrow=blockThin;html=1;fontSize=10;fontColor=#404040;strokeWidth=1;endFill=1;strokeColor=#828282;elbow=vertical;metaEdit=1;endSize=14;startSize=14;jumpStyle=arc;jumpSize=16;rounded=0;edgeStyle=orthogonalEdgeStyle;exitX=1;exitY=0.5;exitDx=0;exitDy=0;exitPerimeter=0;entryX=0;entryY=0.5;entryDx=0;entryDy=0;entryPerimeter=0;" edge="1" parent="PSPIoAO_-2s0_nvVkHKU-1" source="PSPIoAO_-2s0_nvVkHKU-7" target="PSPIoAO_-2s0_nvVkHKU-8">
            <mxGeometry x="-0.2405" y="10" width="240" relative="1" as="geometry">
              <mxPoint x="445" y="305" as="sourcePoint" />
              <mxPoint x="685" y="305" as="targetPoint" />
              <mxPoint as="offset" />
            </mxGeometry>
          </mxCell>
        </object>
        <object placeholders="1" c4Type="Relationship" c4Description="CI/CD" label="&lt;div style=&quot;text-align: left&quot;&gt;&lt;div style=&quot;text-align: center&quot;&gt;&lt;b&gt;%c4Description%&lt;/b&gt;&lt;/div&gt;" id="PSPIoAO_-2s0_nvVkHKU-10">
          <mxCell style="endArrow=blockThin;html=1;fontSize=10;fontColor=#404040;strokeWidth=1;endFill=1;strokeColor=#828282;elbow=vertical;metaEdit=1;endSize=14;startSize=14;jumpStyle=arc;jumpSize=16;rounded=0;edgeStyle=orthogonalEdgeStyle;exitX=0.5;exitY=1;exitDx=0;exitDy=0;exitPerimeter=0;entryX=0.5;entryY=0;entryDx=0;entryDy=0;entryPerimeter=0;" edge="1" parent="PSPIoAO_-2s0_nvVkHKU-1" source="PSPIoAO_-2s0_nvVkHKU-5" target="PSPIoAO_-2s0_nvVkHKU-6">
            <mxGeometry x="-0.3333" y="1" width="240" relative="1" as="geometry">
              <mxPoint x="150" y="40" as="sourcePoint" />
              <mxPoint x="239" y="40" as="targetPoint" />
              <mxPoint as="offset" />
              <Array as="points">
                <mxPoint x="349" y="360" />
                <mxPoint x="349" y="360" />
              </Array>
            </mxGeometry>
          </mxCell>
        </object>
        <object placeholders="1" c4Type="Relationship" c4Description="commit" label="&lt;div style=&quot;text-align: left&quot;&gt;&lt;div style=&quot;text-align: center&quot;&gt;&lt;b&gt;%c4Description%&lt;/b&gt;&lt;/div&gt;" id="PSPIoAO_-2s0_nvVkHKU-11">
          <mxCell style="endArrow=blockThin;html=1;fontSize=10;fontColor=#404040;strokeWidth=1;endFill=1;strokeColor=#828282;elbow=vertical;metaEdit=1;endSize=14;startSize=14;jumpStyle=arc;jumpSize=16;rounded=0;edgeStyle=orthogonalEdgeStyle;exitX=0.5;exitY=1;exitDx=0;exitDy=0;exitPerimeter=0;entryX=0.5;entryY=0;entryDx=0;entryDy=0;entryPerimeter=0;" edge="1" parent="PSPIoAO_-2s0_nvVkHKU-1" source="PSPIoAO_-2s0_nvVkHKU-8" target="PSPIoAO_-2s0_nvVkHKU-5">
            <mxGeometry x="0.0127" width="240" relative="1" as="geometry">
              <mxPoint x="359" y="350" as="sourcePoint" />
              <mxPoint x="70" y="405" as="targetPoint" />
              <mxPoint as="offset" />
              <Array as="points">
                <mxPoint x="350" y="160" />
                <mxPoint x="350" y="188" />
                <mxPoint x="349" y="188" />
              </Array>
            </mxGeometry>
          </mxCell>
        </object>
        <object placeholders="1" c4Name="Architecture Registry" c4Type="Framework" c4Technology="React + Next.js" c4Description="relations &amp; attributes" label="&lt;font style=&quot;font-size: 16px&quot;&gt;&lt;b&gt;%c4Name%&lt;/b&gt;&lt;/font&gt;&lt;div&gt;[%c4Type%: %c4Technology%]&lt;/div&gt;&lt;br&gt;&lt;div&gt;&lt;font style=&quot;font-size: 11px&quot;&gt;&lt;font color=&quot;#E6E6E6&quot;&gt;%c4Description%&lt;/font&gt;&lt;/div&gt;" id="PSPIoAO_-2s0_nvVkHKU-12">
          <mxCell style="rounded=1;whiteSpace=wrap;html=1;fontSize=11;labelBackgroundColor=none;fillColor=#0050ef;fontColor=#ffffff;align=center;arcSize=10;strokeColor=#001DBC;metaEdit=1;resizable=0;points=[[0.25,0,0],[0.5,0,0],[0.75,0,0],[1,0.25,0],[1,0.5,0],[1,0.75,0],[0.75,1,0],[0.5,1,0],[0.25,1,0],[0,0.75,0],[0,0.5,0],[0,0.25,0]];" vertex="1" parent="PSPIoAO_-2s0_nvVkHKU-1">
            <mxGeometry x="229" y="515" width="240" height="120" as="geometry" />
          </mxCell>
        </object>
        <object placeholders="1" c4Type="Registry Database" c4Container="DB" c4Technology="Supabase" c4Description="" label="&lt;font style=&quot;font-size: 16px&quot;&gt;&lt;b&gt;%c4Type%&lt;/b&gt;&lt;/font&gt;&lt;div&gt;[%c4Container%:&amp;nbsp;%c4Technology%]&lt;/div&gt;&lt;br&gt;&lt;div&gt;&lt;font style=&quot;font-size: 11px&quot;&gt;&lt;font color=&quot;#E6E6E6&quot;&gt;%c4Description%&lt;/font&gt;&lt;/div&gt;" id="PSPIoAO_-2s0_nvVkHKU-13">
          <mxCell style="shape=cylinder3;size=15;whiteSpace=wrap;html=1;boundedLbl=1;rounded=0;labelBackgroundColor=none;fillColor=#6a00ff;fontSize=12;fontColor=#ffffff;align=center;strokeColor=#3700CC;metaEdit=1;points=[[0.5,0,0],[1,0.25,0],[1,0.5,0],[1,0.75,0],[0.5,1,0],[0,0.75,0],[0,0.5,0],[0,0.25,0]];resizable=0;" vertex="1" parent="PSPIoAO_-2s0_nvVkHKU-1">
            <mxGeometry x="229" y="660" width="240" height="120" as="geometry" />
          </mxCell>
        </object>
        <object placeholders="1" c4Type="Relationship" id="PSPIoAO_-2s0_nvVkHKU-14">
          <mxCell style="endArrow=blockThin;html=1;fontSize=10;fontColor=#404040;strokeWidth=1;endFill=1;strokeColor=#828282;elbow=vertical;metaEdit=1;endSize=14;startSize=14;jumpStyle=arc;jumpSize=16;rounded=0;edgeStyle=orthogonalEdgeStyle;exitX=0.5;exitY=1;exitDx=0;exitDy=0;exitPerimeter=0;" edge="1" parent="PSPIoAO_-2s0_nvVkHKU-1" source="PSPIoAO_-2s0_nvVkHKU-12" target="PSPIoAO_-2s0_nvVkHKU-13">
            <mxGeometry width="240" relative="1" as="geometry">
              <mxPoint x="330" y="660" as="sourcePoint" />
              <mxPoint x="570" y="660" as="targetPoint" />
            </mxGeometry>
          </mxCell>
        </object>
        <object placeholders="1" c4Type="Relationship" c4Description="" label="&lt;div style=&quot;text-align: left&quot;&gt;&lt;div style=&quot;text-align: center&quot;&gt;&lt;b&gt;%c4Description%&lt;/b&gt;&lt;/div&gt;" id="IUU9_6HhnFSpy7K2PlnY-0">
          <mxCell style="endArrow=blockThin;html=1;fontSize=10;fontColor=#404040;strokeWidth=1;endFill=1;strokeColor=#828282;elbow=vertical;metaEdit=1;endSize=14;startSize=14;jumpStyle=arc;jumpSize=16;rounded=0;edgeStyle=orthogonalEdgeStyle;exitX=1;exitY=0.75;exitDx=0;exitDy=0;exitPerimeter=0;entryX=0;entryY=0.25;entryDx=0;entryDy=0;entryPerimeter=0;" edge="1" parent="PSPIoAO_-2s0_nvVkHKU-1" source="PSPIoAO_-2s0_nvVkHKU-7" target="PSPIoAO_-2s0_nvVkHKU-12">
            <mxGeometry x="-0.6756" width="240" relative="1" as="geometry">
              <mxPoint x="-110" y="50" as="sourcePoint" />
              <mxPoint x="239" y="50" as="targetPoint" />
              <mxPoint as="offset" />
              <Array as="points">
                <mxPoint x="80" y="145" />
                <mxPoint x="80" y="545" />
              </Array>
            </mxGeometry>
          </mxCell>
        </object>
        <object placeholders="1" c4Name="Customers" c4Type="Person" c4Description="" label="&lt;font style=&quot;font-size: 16px&quot;&gt;&lt;b&gt;%c4Name%&lt;/b&gt;&lt;/font&gt;&lt;div&gt;[%c4Type%]&lt;/div&gt;&lt;br&gt;&lt;div&gt;&lt;font style=&quot;font-size: 11px&quot;&gt;&lt;font color=&quot;#cccccc&quot;&gt;%c4Description%&lt;/font&gt;&lt;/div&gt;" id="aJUbRU2G7K-Yd2UXze3W-0">
          <mxCell style="html=1;fontSize=11;dashed=0;whiteSpace=wrap;fillColor=#6C6477;strokeColor=#4D4D4D;fontColor=#ffffff;shape=mxgraph.c4.person2;align=center;metaEdit=1;points=[[0.5,0,0],[1,0.5,0],[1,0.75,0],[0.75,1,0],[0.5,1,0],[0.25,1,0],[0,0.75,0],[0,0.5,0]];resizable=0;" vertex="1" parent="PSPIoAO_-2s0_nvVkHKU-1">
            <mxGeometry x="520" y="380" width="200" height="180" as="geometry" />
          </mxCell>
        </object>
        <object placeholders="1" c4Type="Relationship" id="aJUbRU2G7K-Yd2UXze3W-1">
          <mxCell style="endArrow=blockThin;html=1;fontSize=10;fontColor=#404040;strokeWidth=1;endFill=1;strokeColor=#828282;elbow=vertical;metaEdit=1;endSize=14;startSize=14;jumpStyle=arc;jumpSize=16;rounded=0;edgeStyle=orthogonalEdgeStyle;entryX=1;entryY=0.5;entryDx=0;entryDy=0;entryPerimeter=0;" edge="1" parent="PSPIoAO_-2s0_nvVkHKU-1" source="aJUbRU2G7K-Yd2UXze3W-0" target="PSPIoAO_-2s0_nvVkHKU-6">
            <mxGeometry width="240" relative="1" as="geometry">
              <mxPoint x="90" y="430" as="sourcePoint" />
              <mxPoint x="330" y="430" as="targetPoint" />
            </mxGeometry>
          </mxCell>
        </object>
        <object placeholders="1" c4Type="Relationship" id="aJUbRU2G7K-Yd2UXze3W-2">
          <mxCell style="endArrow=blockThin;html=1;fontSize=10;fontColor=#404040;strokeWidth=1;endFill=1;strokeColor=#828282;elbow=vertical;metaEdit=1;endSize=14;startSize=14;jumpStyle=arc;jumpSize=16;rounded=0;edgeStyle=orthogonalEdgeStyle;exitX=0;exitY=0.75;exitDx=0;exitDy=0;exitPerimeter=0;entryX=1;entryY=0.25;entryDx=0;entryDy=0;entryPerimeter=0;" edge="1" parent="PSPIoAO_-2s0_nvVkHKU-1" source="aJUbRU2G7K-Yd2UXze3W-0" target="PSPIoAO_-2s0_nvVkHKU-12">
            <mxGeometry width="240" relative="1" as="geometry">
              <mxPoint x="550" y="515" as="sourcePoint" />
              <mxPoint x="479" y="450" as="targetPoint" />
            </mxGeometry>
          </mxCell>
        </object>
      </root>
    </mxGraphModel>
  </diagram>
  <diagram name="Repo" id="Hv6A8p55-AFAszSYTqZc">
    <mxGraphModel dx="1511" dy="1196" grid="0" gridSize="10" guides="1" tooltips="1" connect="1" arrows="1" fold="1" page="0" pageScale="1" pageWidth="827" pageHeight="1169" math="0" shadow="0">
      <root>
        <mxCell id="YRmLnkT1DOCgm3Oipy0U-0" />
        <mxCell id="YRmLnkT1DOCgm3Oipy0U-1" parent="YRmLnkT1DOCgm3Oipy0U-0" />
        <object placeholders="1" c4Name="Storage &amp; Deployment" c4Type="ContainerScopeBoundary" c4Application="Container" label="&lt;font style=&quot;font-size: 16px&quot;&gt;&lt;b&gt;&lt;div style=&quot;text-align: left&quot;&gt;%c4Name%&lt;/div&gt;&lt;/b&gt;&lt;/font&gt;&lt;div style=&quot;text-align: left&quot;&gt;[%c4Application%]&lt;/div&gt;" id="hxZVmNl4Uum0lH-k66rM-10">
          <mxCell style="rounded=1;fontSize=11;whiteSpace=wrap;html=1;dashed=1;arcSize=20;fillColor=#fff2cc;strokeColor=#d6b656;labelBackgroundColor=none;align=left;verticalAlign=bottom;labelBorderColor=none;spacingTop=0;spacing=10;dashPattern=8 4;metaEdit=1;rotatable=0;perimeter=rectanglePerimeter;noLabel=0;labelPadding=0;allowArrows=0;connectable=0;expand=0;recursiveResize=0;editable=1;pointerEvents=0;absoluteArcSize=1;points=[[0.25,0,0],[0.5,0,0],[0.75,0,0],[1,0.25,0],[1,0.5,0],[1,0.75,0],[0.75,1,0],[0.5,1,0],[0.25,1,0],[0,0.75,0],[0,0.5,0],[0,0.25,0]];" parent="YRmLnkT1DOCgm3Oipy0U-1" vertex="1">
            <mxGeometry x="457" y="-70" width="280" height="410" as="geometry" />
          </mxCell>
        </object>
        <object placeholders="1" c4Name="Local Development" c4Type="ContainerScopeBoundary" c4Application="Container" label="&lt;font style=&quot;font-size: 16px&quot;&gt;&lt;b&gt;&lt;div style=&quot;text-align: left&quot;&gt;%c4Name%&lt;/div&gt;&lt;/b&gt;&lt;/font&gt;&lt;div style=&quot;text-align: left&quot;&gt;[%c4Application%]&lt;/div&gt;" id="hxZVmNl4Uum0lH-k66rM-5">
          <mxCell style="rounded=1;fontSize=11;whiteSpace=wrap;html=1;dashed=1;arcSize=20;fillColor=#fff2cc;strokeColor=#d6b656;labelBackgroundColor=none;align=left;verticalAlign=bottom;labelBorderColor=none;spacingTop=0;spacing=10;dashPattern=8 4;metaEdit=1;rotatable=0;perimeter=rectanglePerimeter;noLabel=0;labelPadding=0;allowArrows=0;connectable=0;expand=0;recursiveResize=0;editable=1;pointerEvents=0;absoluteArcSize=1;points=[[0.25,0,0],[0.5,0,0],[0.75,0,0],[1,0.25,0],[1,0.5,0],[1,0.75,0],[0.75,1,0],[0.5,1,0],[0.25,1,0],[0,0.75,0],[0,0.5,0],[0,0.25,0]];" parent="YRmLnkT1DOCgm3Oipy0U-1" vertex="1">
            <mxGeometry x="-80" y="-70" width="520" height="410" as="geometry" />
          </mxCell>
        </object>
        <object placeholders="1" c4Name="Version Control System" c4Type="Container" c4Technology="Github, Gitlab, etc." c4Description="Artifact long-time storage" label="&lt;font style=&quot;font-size: 16px&quot;&gt;&lt;b&gt;%c4Name%&lt;/b&gt;&lt;/font&gt;&lt;div&gt;[%c4Type%: %c4Technology%]&lt;/div&gt;&lt;br&gt;&lt;div&gt;&lt;font style=&quot;font-size: 11px&quot;&gt;&lt;font color=&quot;#E6E6E6&quot;&gt;%c4Description%&lt;/font&gt;&lt;/div&gt;" id="hxZVmNl4Uum0lH-k66rM-0">
          <mxCell style="rounded=1;whiteSpace=wrap;html=1;fontSize=11;labelBackgroundColor=none;fillColor=#23A2D9;fontColor=#ffffff;align=center;arcSize=10;strokeColor=#0E7DAD;metaEdit=1;resizable=0;points=[[0.25,0,0],[0.5,0,0],[0.75,0,0],[1,0.25,0],[1,0.5,0],[1,0.75,0],[0.75,1,0],[0.5,1,0],[0.25,1,0],[0,0.75,0],[0,0.5,0],[0,0.25,0]];" parent="YRmLnkT1DOCgm3Oipy0U-1" vertex="1">
            <mxGeometry x="477" y="-20" width="240" height="120" as="geometry" />
          </mxCell>
        </object>
        <object placeholders="1" c4Name="Markdown Publishing Framework" c4Type="Container" c4Technology="Astro Framework" c4Description="Markdown &amp; MDX management &amp; p&#xa;ublishing" label="&lt;font style=&quot;font-size: 16px&quot;&gt;&lt;b&gt;%c4Name%&lt;/b&gt;&lt;/font&gt;&lt;div&gt;[%c4Type%: %c4Technology%]&lt;/div&gt;&lt;br&gt;&lt;div&gt;&lt;font style=&quot;font-size: 11px&quot;&gt;&lt;font color=&quot;#E6E6E6&quot;&gt;%c4Description%&lt;/font&gt;&lt;/div&gt;" id="hxZVmNl4Uum0lH-k66rM-2">
          <mxCell style="rounded=1;whiteSpace=wrap;html=1;fontSize=11;labelBackgroundColor=none;fillColor=#0050ef;fontColor=#ffffff;align=center;arcSize=10;strokeColor=#001DBC;metaEdit=1;resizable=0;points=[[0.25,0,0],[0.5,0,0],[0.75,0,0],[1,0.25,0],[1,0.5,0],[1,0.75,0],[0.75,1,0],[0.5,1,0],[0.25,1,0],[0,0.75,0],[0,0.5,0],[0,0.25,0]];" parent="YRmLnkT1DOCgm3Oipy0U-1" vertex="1">
            <mxGeometry x="190" y="160" width="240" height="120" as="geometry" />
          </mxCell>
        </object>
        <object placeholders="1" c4Name="Enterprise Architect" c4Type="Person" c4Description="Enterprise Architect" label="&lt;font style=&quot;font-size: 16px&quot;&gt;&lt;b&gt;%c4Name%&lt;/b&gt;&lt;/font&gt;&lt;div&gt;[%c4Type%]&lt;/div&gt;&lt;br&gt;&lt;div&gt;&lt;font style=&quot;font-size: 11px&quot;&gt;&lt;font color=&quot;#cccccc&quot;&gt;%c4Description%&lt;/font&gt;&lt;/div&gt;" id="hxZVmNl4Uum0lH-k66rM-3">
          <mxCell style="html=1;fontSize=11;dashed=0;whiteSpace=wrap;fillColor=#083F75;strokeColor=#06315C;fontColor=#ffffff;shape=mxgraph.c4.person2;align=center;metaEdit=1;points=[[0.5,0,0],[1,0.5,0],[1,0.75,0],[0.75,1,0],[0.5,1,0],[0.25,1,0],[0,0.75,0],[0,0.5,0]];resizable=0;" parent="YRmLnkT1DOCgm3Oipy0U-1" vertex="1">
            <mxGeometry x="-60" y="-50" width="200" height="180" as="geometry" />
          </mxCell>
        </object>
        <object placeholders="1" c4Name="Artifact Development" c4Type="Container" c4Technology="VSCode, Draw.io, etc." c4Description="Markdown, MDX, Draw.io, PlantUML, etc." label="&lt;font style=&quot;font-size: 16px&quot;&gt;&lt;b&gt;%c4Name%&lt;/b&gt;&lt;/font&gt;&lt;div&gt;[%c4Type%: %c4Technology%]&lt;/div&gt;&lt;br&gt;&lt;div&gt;&lt;font style=&quot;font-size: 11px&quot;&gt;&lt;font color=&quot;#E6E6E6&quot;&gt;%c4Description%&lt;/font&gt;&lt;/div&gt;" id="hxZVmNl4Uum0lH-k66rM-4">
          <mxCell style="rounded=1;whiteSpace=wrap;html=1;fontSize=11;labelBackgroundColor=none;fillColor=#0050ef;fontColor=#ffffff;align=center;arcSize=10;strokeColor=#001DBC;metaEdit=1;resizable=0;points=[[0.25,0,0],[0.5,0,0],[0.75,0,0],[1,0.25,0],[1,0.5,0],[1,0.75,0],[0.75,1,0],[0.5,1,0],[0.25,1,0],[0,0.75,0],[0,0.5,0],[0,0.25,0]];" parent="YRmLnkT1DOCgm3Oipy0U-1" vertex="1">
            <mxGeometry x="190" y="-20" width="240" height="120" as="geometry" />
          </mxCell>
        </object>
        <object placeholders="1" c4Type="Relationship" id="hxZVmNl4Uum0lH-k66rM-6">
          <mxCell style="endArrow=blockThin;html=1;fontSize=10;fontColor=#404040;strokeWidth=1;endFill=1;strokeColor=#828282;elbow=vertical;metaEdit=1;endSize=14;startSize=14;jumpStyle=arc;jumpSize=16;rounded=0;edgeStyle=orthogonalEdgeStyle;entryX=0;entryY=0.5;entryDx=0;entryDy=0;entryPerimeter=0;" parent="YRmLnkT1DOCgm3Oipy0U-1" source="hxZVmNl4Uum0lH-k66rM-3" target="hxZVmNl4Uum0lH-k66rM-4" edge="1">
            <mxGeometry width="240" relative="1" as="geometry">
              <mxPoint x="260" y="340" as="sourcePoint" />
              <mxPoint x="500" y="340" as="targetPoint" />
            </mxGeometry>
          </mxCell>
        </object>
        <object placeholders="1" c4Type="Relationship" id="hxZVmNl4Uum0lH-k66rM-7">
          <mxCell style="endArrow=blockThin;html=1;fontSize=10;fontColor=#404040;strokeWidth=1;endFill=1;strokeColor=#828282;elbow=vertical;metaEdit=1;endSize=14;startSize=14;jumpStyle=arc;jumpSize=16;rounded=0;edgeStyle=orthogonalEdgeStyle;entryX=0;entryY=0.5;entryDx=0;entryDy=0;entryPerimeter=0;" parent="YRmLnkT1DOCgm3Oipy0U-1" source="hxZVmNl4Uum0lH-k66rM-2" target="hxZVmNl4Uum0lH-k66rM-0" edge="1">
            <mxGeometry width="240" relative="1" as="geometry">
              <mxPoint x="260" y="340" as="sourcePoint" />
              <mxPoint x="500" y="340" as="targetPoint" />
              <Array as="points">
                <mxPoint x="450" y="220" />
                <mxPoint x="450" y="40" />
              </Array>
            </mxGeometry>
          </mxCell>
        </object>
        <object placeholders="1" c4Name="Artifact Publishing " c4Type="Container" c4Technology="Github Pages, etc." c4Description="CI/CD &amp; Deployment" label="&lt;font style=&quot;font-size: 16px&quot;&gt;&lt;b&gt;%c4Name%&lt;/b&gt;&lt;/font&gt;&lt;div&gt;[%c4Type%: %c4Technology%]&lt;/div&gt;&lt;br&gt;&lt;div&gt;&lt;font style=&quot;font-size: 11px&quot;&gt;&lt;font color=&quot;#E6E6E6&quot;&gt;%c4Description%&lt;/font&gt;&lt;/div&gt;" id="hxZVmNl4Uum0lH-k66rM-8">
          <mxCell style="rounded=1;whiteSpace=wrap;html=1;fontSize=11;labelBackgroundColor=none;fillColor=#23A2D9;fontColor=#ffffff;align=center;arcSize=10;strokeColor=#0E7DAD;metaEdit=1;resizable=0;points=[[0.25,0,0],[0.5,0,0],[0.75,0,0],[1,0.25,0],[1,0.5,0],[1,0.75,0],[0.75,1,0],[0.5,1,0],[0.25,1,0],[0,0.75,0],[0,0.5,0],[0,0.25,0]];" parent="YRmLnkT1DOCgm3Oipy0U-1" vertex="1">
            <mxGeometry x="477" y="160" width="240" height="120" as="geometry" />
          </mxCell>
        </object>
        <object placeholders="1" c4Type="Relationship" id="hxZVmNl4Uum0lH-k66rM-9">
          <mxCell style="endArrow=blockThin;html=1;fontSize=10;fontColor=#404040;strokeWidth=1;endFill=1;strokeColor=#828282;elbow=vertical;metaEdit=1;endSize=14;startSize=14;jumpStyle=arc;jumpSize=16;rounded=0;edgeStyle=orthogonalEdgeStyle;exitX=0.5;exitY=1;exitDx=0;exitDy=0;exitPerimeter=0;entryX=0.5;entryY=0;entryDx=0;entryDy=0;entryPerimeter=0;" parent="YRmLnkT1DOCgm3Oipy0U-1" source="hxZVmNl4Uum0lH-k66rM-0" target="hxZVmNl4Uum0lH-k66rM-8" edge="1">
            <mxGeometry width="240" relative="1" as="geometry">
              <mxPoint x="427" y="50" as="sourcePoint" />
              <mxPoint x="517" y="50" as="targetPoint" />
            </mxGeometry>
          </mxCell>
        </object>
        <object placeholders="1" c4Name="Consumers " c4Type="Person" c4Description="Consumers of architecture artifacts" label="&lt;font style=&quot;font-size: 16px&quot;&gt;&lt;b&gt;%c4Name%&lt;/b&gt;&lt;/font&gt;&lt;div&gt;[%c4Type%]&lt;/div&gt;&lt;br&gt;&lt;div&gt;&lt;font style=&quot;font-size: 11px&quot;&gt;&lt;font color=&quot;#cccccc&quot;&gt;%c4Description%&lt;/font&gt;&lt;/div&gt;" id="hxZVmNl4Uum0lH-k66rM-11">
          <mxCell style="html=1;fontSize=11;dashed=0;whiteSpace=wrap;fillColor=#6C6477;strokeColor=#4D4D4D;fontColor=#ffffff;shape=mxgraph.c4.person2;align=center;metaEdit=1;points=[[0.5,0,0],[1,0.5,0],[1,0.75,0],[0.75,1,0],[0.5,1,0],[0.25,1,0],[0,0.75,0],[0,0.5,0]];resizable=0;" parent="YRmLnkT1DOCgm3Oipy0U-1" vertex="1">
            <mxGeometry x="770" y="130" width="200" height="180" as="geometry" />
          </mxCell>
        </object>
        <object placeholders="1" c4Type="Relationship" id="hxZVmNl4Uum0lH-k66rM-12">
          <mxCell style="endArrow=blockThin;html=1;fontSize=10;fontColor=#404040;strokeWidth=1;endFill=1;strokeColor=#828282;elbow=vertical;metaEdit=1;endSize=14;startSize=14;jumpStyle=arc;jumpSize=16;rounded=0;edgeStyle=orthogonalEdgeStyle;" parent="YRmLnkT1DOCgm3Oipy0U-1" source="hxZVmNl4Uum0lH-k66rM-11" target="hxZVmNl4Uum0lH-k66rM-8" edge="1">
            <mxGeometry width="240" relative="1" as="geometry">
              <mxPoint x="607" y="110" as="sourcePoint" />
              <mxPoint x="607" y="170" as="targetPoint" />
            </mxGeometry>
          </mxCell>
        </object>
        <object placeholders="1" c4Type="Relationship" id="hxZVmNl4Uum0lH-k66rM-13">
          <mxCell style="endArrow=blockThin;html=1;fontSize=10;fontColor=#404040;strokeWidth=1;endFill=1;strokeColor=#828282;elbow=vertical;metaEdit=1;endSize=14;startSize=14;jumpStyle=arc;jumpSize=16;rounded=0;edgeStyle=orthogonalEdgeStyle;exitX=0.5;exitY=1;exitDx=0;exitDy=0;exitPerimeter=0;entryX=0.5;entryY=0;entryDx=0;entryDy=0;entryPerimeter=0;" parent="YRmLnkT1DOCgm3Oipy0U-1" source="hxZVmNl4Uum0lH-k66rM-4" target="hxZVmNl4Uum0lH-k66rM-2" edge="1">
            <mxGeometry width="240" relative="1" as="geometry">
              <mxPoint x="620" y="110" as="sourcePoint" />
              <mxPoint x="620" y="170" as="targetPoint" />
            </mxGeometry>
          </mxCell>
        </object>
      </root>
    </mxGraphModel>
  </diagram>
  <diagram id="vpKriJUOWGf0bquks2Pa" name="Portal">
    <mxGraphModel dx="1111" dy="796" grid="1" gridSize="10" guides="1" tooltips="1" connect="1" arrows="1" fold="1" page="1" pageScale="1" pageWidth="827" pageHeight="1169" math="0" shadow="0">
      <root>
        <mxCell id="0" />
        <mxCell id="1" parent="0" />
        <object placeholders="1" c4Name="Architecture Portal" c4Type="ContainerScopeBoundary" c4Application="Container" label="&lt;font style=&quot;font-size: 16px&quot;&gt;&lt;b&gt;&lt;div style=&quot;text-align: left&quot;&gt;%c4Name%&lt;/div&gt;&lt;/b&gt;&lt;/font&gt;&lt;div style=&quot;text-align: left&quot;&gt;[%c4Application%]&lt;/div&gt;" id="u4pJlL-Z8foI1WHhyL7y-1">
          <mxCell style="rounded=1;fontSize=11;whiteSpace=wrap;html=1;dashed=1;arcSize=20;fillColor=#fff2cc;strokeColor=#d6b656;labelBackgroundColor=none;align=left;verticalAlign=bottom;labelBorderColor=none;spacingTop=0;spacing=10;dashPattern=8 4;metaEdit=1;rotatable=0;perimeter=rectanglePerimeter;noLabel=0;labelPadding=0;allowArrows=0;connectable=0;expand=0;recursiveResize=0;editable=1;pointerEvents=0;absoluteArcSize=1;points=[[0.25,0,0],[0.5,0,0],[0.75,0,0],[1,0.25,0],[1,0.5,0],[1,0.75,0],[0.75,1,0],[0.5,1,0],[0.25,1,0],[0,0.75,0],[0,0.5,0],[0,0.25,0]];" vertex="1" parent="1">
            <mxGeometry x="90" y="60" width="560" height="370" as="geometry" />
          </mxCell>
        </object>
        <object placeholders="1" c4Name="Knowledge Base" c4Type="Container" c4Technology="Astro" c4Description="" label="&lt;font style=&quot;font-size: 16px&quot;&gt;&lt;b&gt;%c4Name%&lt;/b&gt;&lt;/font&gt;&lt;div&gt;[%c4Type%: %c4Technology%]&lt;/div&gt;&lt;br&gt;&lt;div&gt;&lt;font style=&quot;font-size: 11px&quot;&gt;&lt;font color=&quot;#E6E6E6&quot;&gt;%c4Description%&lt;/font&gt;&lt;/div&gt;" id="u4pJlL-Z8foI1WHhyL7y-2">
          <mxCell style="rounded=1;whiteSpace=wrap;html=1;fontSize=11;labelBackgroundColor=none;fillColor=#23A2D9;fontColor=#ffffff;align=center;arcSize=10;strokeColor=#0E7DAD;metaEdit=1;resizable=0;points=[[0.25,0,0],[0.5,0,0],[0.75,0,0],[1,0.25,0],[1,0.5,0],[1,0.75,0],[0.75,1,0],[0.5,1,0],[0.25,1,0],[0,0.75,0],[0,0.5,0],[0,0.25,0]];" vertex="1" parent="1">
            <mxGeometry x="110" y="90" width="240" height="120" as="geometry" />
          </mxCell>
        </object>
        <object placeholders="1" c4Name="Registry" c4Type="Container" c4Technology="React + Next.js" c4Description="" label="&lt;font style=&quot;font-size: 16px&quot;&gt;&lt;b&gt;%c4Name%&lt;/b&gt;&lt;/font&gt;&lt;div&gt;[%c4Type%: %c4Technology%]&lt;/div&gt;&lt;br&gt;&lt;div&gt;&lt;font style=&quot;font-size: 11px&quot;&gt;&lt;font color=&quot;#E6E6E6&quot;&gt;%c4Description%&lt;/font&gt;&lt;/div&gt;" id="x0Uvtp6KFAbqukaDWH56-1">
          <mxCell style="rounded=1;whiteSpace=wrap;html=1;fontSize=11;labelBackgroundColor=none;fillColor=#23A2D9;fontColor=#ffffff;align=center;arcSize=10;strokeColor=#0E7DAD;metaEdit=1;resizable=0;points=[[0.25,0,0],[0.5,0,0],[0.75,0,0],[1,0.25,0],[1,0.5,0],[1,0.75,0],[0.75,1,0],[0.5,1,0],[0.25,1,0],[0,0.75,0],[0,0.5,0],[0,0.25,0]];" vertex="1" parent="1">
            <mxGeometry x="390" y="90" width="240" height="120" as="geometry" />
          </mxCell>
        </object>
        <object placeholders="1" c4Type="Registry DB" c4Container="Container" c4Technology="Supabase" c4Description="" label="&lt;font style=&quot;font-size: 16px&quot;&gt;&lt;b&gt;%c4Type%&lt;/b&gt;&lt;/font&gt;&lt;div&gt;[%c4Container%:&amp;nbsp;%c4Technology%]&lt;/div&gt;&lt;br&gt;&lt;div&gt;&lt;font style=&quot;font-size: 11px&quot;&gt;&lt;font color=&quot;#E6E6E6&quot;&gt;%c4Description%&lt;/font&gt;&lt;/div&gt;" id="Vn4-QLcO1Lj_2R49_Lui-1">
          <mxCell style="shape=cylinder3;size=15;whiteSpace=wrap;html=1;boundedLbl=1;rounded=0;labelBackgroundColor=none;fillColor=#23A2D9;fontSize=12;fontColor=#ffffff;align=center;strokeColor=#0E7DAD;metaEdit=1;points=[[0.5,0,0],[1,0.25,0],[1,0.5,0],[1,0.75,0],[0.5,1,0],[0,0.75,0],[0,0.5,0],[0,0.25,0]];resizable=0;" vertex="1" parent="1">
            <mxGeometry x="390" y="250" width="240" height="120" as="geometry" />
          </mxCell>
        </object>
        <object placeholders="1" c4Type="Relationship" id="Vn4-QLcO1Lj_2R49_Lui-2">
          <mxCell style="endArrow=blockThin;html=1;fontSize=10;fontColor=#404040;strokeWidth=1;endFill=1;strokeColor=#828282;elbow=vertical;metaEdit=1;endSize=14;startSize=14;jumpStyle=arc;jumpSize=16;rounded=0;edgeStyle=orthogonalEdgeStyle;entryX=0.5;entryY=0;entryDx=0;entryDy=0;entryPerimeter=0;" edge="1" parent="1" source="x0Uvtp6KFAbqukaDWH56-1" target="Vn4-QLcO1Lj_2R49_Lui-1">
            <mxGeometry width="240" relative="1" as="geometry">
              <mxPoint x="290" y="250" as="sourcePoint" />
              <mxPoint x="510" y="270" as="targetPoint" />
            </mxGeometry>
          </mxCell>
        </object>
        <object placeholders="1" c4Name="Tech Radar" c4Type="Container" c4Technology="JavaScript" c4Description="" label="&lt;font style=&quot;font-size: 16px&quot;&gt;&lt;b&gt;%c4Name%&lt;/b&gt;&lt;/font&gt;&lt;div&gt;[%c4Type%: %c4Technology%]&lt;/div&gt;&lt;br&gt;&lt;div&gt;&lt;font style=&quot;font-size: 11px&quot;&gt;&lt;font color=&quot;#E6E6E6&quot;&gt;%c4Description%&lt;/font&gt;&lt;/div&gt;" id="Vn4-QLcO1Lj_2R49_Lui-3">
          <mxCell style="rounded=1;whiteSpace=wrap;html=1;fontSize=11;labelBackgroundColor=none;fillColor=#23A2D9;fontColor=#ffffff;align=center;arcSize=10;strokeColor=#0E7DAD;metaEdit=1;resizable=0;points=[[0.25,0,0],[0.5,0,0],[0.75,0,0],[1,0.25,0],[1,0.5,0],[1,0.75,0],[0.75,1,0],[0.5,1,0],[0.25,1,0],[0,0.75,0],[0,0.5,0],[0,0.25,0]];" vertex="1" parent="1">
            <mxGeometry x="110" y="250" width="240" height="120" as="geometry" />
          </mxCell>
        </object>
      </root>
    </mxGraphModel>
  </diagram>
  <diagram name="with Strategy" id="zBziCOav7KDM6KX6hl0j">
    <mxGraphModel dx="1052" dy="626" grid="1" gridSize="10" guides="1" tooltips="1" connect="1" arrows="1" fold="1" page="1" pageScale="1" pageWidth="827" pageHeight="1169" math="0" shadow="0">
      <root>
        <mxCell id="kn7G0SHX3g5QI74AWVMH-0" />
        <mxCell id="kn7G0SHX3g5QI74AWVMH-1" parent="kn7G0SHX3g5QI74AWVMH-0" />
        <mxCell id="kn7G0SHX3g5QI74AWVMH-2" value="Requirements" style="ellipse;whiteSpace=wrap;html=1;aspect=fixed;fillColor=#ffe6cc;strokeColor=#d79b00;" parent="kn7G0SHX3g5QI74AWVMH-1" vertex="1">
          <mxGeometry x="230" y="60" width="100" height="100" as="geometry" />
        </mxCell>
        <mxCell id="kn7G0SHX3g5QI74AWVMH-3" value="" style="edgeStyle=orthogonalEdgeStyle;rounded=0;orthogonalLoop=1;jettySize=auto;html=1;startArrow=classic;startFill=1;endArrow=none;endFill=0;" parent="kn7G0SHX3g5QI74AWVMH-1" source="kn7G0SHX3g5QI74AWVMH-4" target="kn7G0SHX3g5QI74AWVMH-2" edge="1">
          <mxGeometry relative="1" as="geometry" />
        </mxCell>
        <mxCell id="kn7G0SHX3g5QI74AWVMH-4" value="A.&lt;br&gt;Business &lt;br&gt;Context &lt;br&gt;Analysis" style="ellipse;whiteSpace=wrap;html=1;aspect=fixed;fillColor=#fff2cc;strokeColor=#d6b656;" parent="kn7G0SHX3g5QI74AWVMH-1" vertex="1">
          <mxGeometry x="230" y="200" width="100" height="100" as="geometry" />
        </mxCell>
        <mxCell id="kn7G0SHX3g5QI74AWVMH-5" value="B.&lt;br&gt;Solution&lt;br&gt;Architecture" style="ellipse;whiteSpace=wrap;html=1;aspect=fixed;fillColor=#fff2cc;strokeColor=#d6b656;" parent="kn7G0SHX3g5QI74AWVMH-1" vertex="1">
          <mxGeometry x="380" y="341" width="100" height="100" as="geometry" />
        </mxCell>
        <mxCell id="kn7G0SHX3g5QI74AWVMH-6" value="C.&lt;br&gt;Architecture&lt;br&gt;Decision" style="ellipse;whiteSpace=wrap;html=1;aspect=fixed;fillColor=#fff2cc;strokeColor=#d6b656;" parent="kn7G0SHX3g5QI74AWVMH-1" vertex="1">
          <mxGeometry x="230" y="480" width="100" height="100" as="geometry" />
        </mxCell>
        <mxCell id="kn7G0SHX3g5QI74AWVMH-7" value="D.&lt;br&gt;Architecture&lt;br&gt;Control" style="ellipse;whiteSpace=wrap;html=1;aspect=fixed;fillColor=#fff2cc;strokeColor=#d6b656;" parent="kn7G0SHX3g5QI74AWVMH-1" vertex="1">
          <mxGeometry x="80" y="340" width="100" height="100" as="geometry" />
        </mxCell>
        <mxCell id="kn7G0SHX3g5QI74AWVMH-8" value="F.&lt;br&gt;Technological&lt;br&gt;Strategy" style="ellipse;whiteSpace=wrap;html=1;aspect=fixed;fillColor=#ffe6cc;strokeColor=#d79b00;" parent="kn7G0SHX3g5QI74AWVMH-1" vertex="1">
          <mxGeometry x="230" y="620" width="100" height="100" as="geometry" />
        </mxCell>
        <mxCell id="kn7G0SHX3g5QI74AWVMH-9" value="E.&lt;br&gt;Architecture&lt;br&gt;Repository" style="ellipse;whiteSpace=wrap;html=1;aspect=fixed;fillColor=#e1d5e7;strokeColor=#9673a6;" parent="kn7G0SHX3g5QI74AWVMH-1" vertex="1">
          <mxGeometry x="230" y="340" width="100" height="100" as="geometry" />
        </mxCell>
        <mxCell id="kn7G0SHX3g5QI74AWVMH-10" value="" style="endArrow=classic;startArrow=classic;html=1;rounded=0;" parent="kn7G0SHX3g5QI74AWVMH-1" edge="1">
          <mxGeometry width="50" height="50" relative="1" as="geometry">
            <mxPoint x="380" y="391" as="sourcePoint" />
            <mxPoint x="330" y="391" as="targetPoint" />
          </mxGeometry>
        </mxCell>
        <mxCell id="kn7G0SHX3g5QI74AWVMH-11" value="" style="endArrow=classic;html=1;rounded=0;entryX=0.5;entryY=0;entryDx=0;entryDy=0;exitX=1;exitY=0.5;exitDx=0;exitDy=0;" parent="kn7G0SHX3g5QI74AWVMH-1" source="kn7G0SHX3g5QI74AWVMH-4" target="kn7G0SHX3g5QI74AWVMH-5" edge="1">
          <mxGeometry width="50" height="50" relative="1" as="geometry">
            <mxPoint x="290" y="330" as="sourcePoint" />
            <mxPoint x="340" y="280" as="targetPoint" />
            <Array as="points">
              <mxPoint x="430" y="250" />
            </Array>
          </mxGeometry>
        </mxCell>
        <mxCell id="kn7G0SHX3g5QI74AWVMH-12" value="" style="endArrow=classic;html=1;rounded=0;entryX=1;entryY=0.5;entryDx=0;entryDy=0;exitX=0.5;exitY=1;exitDx=0;exitDy=0;" parent="kn7G0SHX3g5QI74AWVMH-1" source="kn7G0SHX3g5QI74AWVMH-5" target="kn7G0SHX3g5QI74AWVMH-6" edge="1">
          <mxGeometry width="50" height="50" relative="1" as="geometry">
            <mxPoint x="340" y="260" as="sourcePoint" />
            <mxPoint x="450" y="370" as="targetPoint" />
            <Array as="points">
              <mxPoint x="430" y="530" />
            </Array>
          </mxGeometry>
        </mxCell>
        <mxCell id="kn7G0SHX3g5QI74AWVMH-13" value="" style="endArrow=classic;html=1;rounded=0;entryX=0.5;entryY=1;entryDx=0;entryDy=0;exitX=0;exitY=0.5;exitDx=0;exitDy=0;" parent="kn7G0SHX3g5QI74AWVMH-1" source="kn7G0SHX3g5QI74AWVMH-6" target="kn7G0SHX3g5QI74AWVMH-7" edge="1">
          <mxGeometry width="50" height="50" relative="1" as="geometry">
            <mxPoint x="450" y="470" as="sourcePoint" />
            <mxPoint x="340" y="579" as="targetPoint" />
            <Array as="points">
              <mxPoint x="130" y="530" />
            </Array>
          </mxGeometry>
        </mxCell>
        <mxCell id="kn7G0SHX3g5QI74AWVMH-14" value="" style="endArrow=classic;html=1;rounded=0;entryX=0;entryY=0.5;entryDx=0;entryDy=0;exitX=0.5;exitY=0;exitDx=0;exitDy=0;" parent="kn7G0SHX3g5QI74AWVMH-1" source="kn7G0SHX3g5QI74AWVMH-7" target="kn7G0SHX3g5QI74AWVMH-4" edge="1">
          <mxGeometry width="50" height="50" relative="1" as="geometry">
            <mxPoint x="460" y="480" as="sourcePoint" />
            <mxPoint x="350" y="589" as="targetPoint" />
            <Array as="points">
              <mxPoint x="130" y="250" />
            </Array>
          </mxGeometry>
        </mxCell>
        <mxCell id="kn7G0SHX3g5QI74AWVMH-15" value="" style="endArrow=classic;startArrow=classic;html=1;rounded=0;entryX=0.5;entryY=1;entryDx=0;entryDy=0;exitX=0.5;exitY=0;exitDx=0;exitDy=0;" parent="kn7G0SHX3g5QI74AWVMH-1" edge="1">
          <mxGeometry width="50" height="50" relative="1" as="geometry">
            <mxPoint x="280" y="340" as="sourcePoint" />
            <mxPoint x="280" y="300" as="targetPoint" />
          </mxGeometry>
        </mxCell>
        <mxCell id="kn7G0SHX3g5QI74AWVMH-16" value="" style="endArrow=classic;startArrow=classic;html=1;rounded=0;entryX=0.5;entryY=1;entryDx=0;entryDy=0;exitX=0.5;exitY=0;exitDx=0;exitDy=0;" parent="kn7G0SHX3g5QI74AWVMH-1" edge="1">
          <mxGeometry width="50" height="50" relative="1" as="geometry">
            <mxPoint x="280" y="481" as="sourcePoint" />
            <mxPoint x="280" y="441" as="targetPoint" />
          </mxGeometry>
        </mxCell>
        <mxCell id="kn7G0SHX3g5QI74AWVMH-17" value="" style="endArrow=classic;startArrow=classic;html=1;rounded=0;entryX=0.5;entryY=1;entryDx=0;entryDy=0;exitX=0.5;exitY=0;exitDx=0;exitDy=0;" parent="kn7G0SHX3g5QI74AWVMH-1" edge="1">
          <mxGeometry width="50" height="50" relative="1" as="geometry">
            <mxPoint x="280" y="621" as="sourcePoint" />
            <mxPoint x="280" y="581" as="targetPoint" />
          </mxGeometry>
        </mxCell>
        <mxCell id="kn7G0SHX3g5QI74AWVMH-18" value="" style="endArrow=classic;startArrow=classic;html=1;rounded=0;" parent="kn7G0SHX3g5QI74AWVMH-1" edge="1">
          <mxGeometry width="50" height="50" relative="1" as="geometry">
            <mxPoint x="231" y="391" as="sourcePoint" />
            <mxPoint x="181" y="391" as="targetPoint" />
          </mxGeometry>
        </mxCell>
      </root>
    </mxGraphModel>
  </diagram>
</mxfile>
